<svg xmlns="http://www.w3.org/2000/svg" width="480" height="320" viewBox="0 0 30 20" shape-rendering="crispEdges">
<rect x="11" y="1" width="1" height="1" fill="#4a4a4a"/>
<rect x="12" y="1" width="1" height="1" fill="#4a4a4a"/>
<rect x="13" y="1" width="1" height="1" fill="#4a4a4a"/>
<rect x="14" y="1" width="1" height="1" fill="#4a4a4a"/>
<rect x="15" y="1" width="1" height="1" fill="#4a4a4a"/>
<rect x="16" y="1" width="1" height="1" fill="#4a4a4a"/>
<rect x="17" y="1" width="1" height="1" fill="#4a4a4a"/>
<rect x="18" y="1" width="1" height="1" fill="#4a4a4a"/>
<rect x="26" y="1" width="1" height="1" fill="#f9971e"/>
<rect x="27" y="1" width="1" height="1" fill="#f9971e"/>
<rect x="9" y="2" width="1" height="1" fill="#4a4a4a"/>
<rect x="10" y="2" width="1" height="1" fill="#4a4a4a"/>
<rect x="11" y="2" width="1" height="1" fill="#4a4a4a"/>
<rect x="12" y="2" width="1" height="1" fill="#4a4a4a"/>
<rect x="13" y="2" width="1" height="1" fill="#4a4a4a"/>
<rect x="14" y="2" width="1" height="1" fill="#4a4a4a"/>
<rect x="15" y="2" width="1" height="1" fill="#4a4a4a"/>
<rect x="16" y="2" width="1" height="1" fill="#4a4a4a"/>
<rect x="17" y="2" width="1" height="1" fill="#4a4a4a"/>
<rect x="18" y="2" width="1" height="1" fill="#4a4a4a"/>
<rect x="19" y="2" width="1" height="1" fill="#4a4a4a"/>
<rect x="20" y="2" width="1" height="1" fill="#4a4a4a"/>
<rect x="25" y="2" width="1" height="1" fill="#4a4a4a"/>
<rect x="26" y="2" width="1" height="1" fill="#4a4a4a"/>
<rect x="8" y="3" width="1" height="1" fill="#4a4a4a"/>
<rect x="9" y="3" width="1" height="1" fill="#4a4a4a"/>
<rect x="10" y="3" width="1" height="1" fill="#4a4a4a"/>
<rect x="11" y="3" width="1" height="1" fill="#4a4a4a"/>
<rect x="12" y="3" width="1" height="1" fill="#4a4a4a"/>
<rect x="13" y="3" width="1" height="1" fill="#4a4a4a"/>
<rect x="14" y="3" width="1" height="1" fill="#4a4a4a"/>
<rect x="15" y="3" width="1" height="1" fill="#4a4a4a"/>
<rect x="16" y="3" width="1" height="1" fill="#4a4a4a"/>
<rect x="17" y="3" width="1" height="1" fill="#4a4a4a"/>
<rect x="18" y="3" width="1" height="1" fill="#4a4a4a"/>
<rect x="19" y="3" width="1" height="1" fill="#4a4a4a"/>
<rect x="20" y="3" width="1" height="1" fill="#4a4a4a"/>
<rect x="21" y="3" width="1" height="1" fill="#4a4a4a"/>
<rect x="24" y="3" width="1" height="1" fill="#f9971e"/>
<rect x="25" y="3" width="1" height="1" fill="#f9971e"/>
<rect x="7" y="4" width="1" height="1" fill="#4a4a4a"/>
<rect x="8" y="4" width="1" height="1" fill="#4a4a4a"/>
<rect x="9" y="4" width="1" height="1" fill="#4a4a4a"/>
<rect x="10" y="4" width="1" height="1" fill="#4a4a4a"/>
<rect x="11" y="4" width="1" height="1" fill="#4a4a4a"/>
<rect x="12" y="4" width="1" height="1" fill="#4a4a4a"/>
<rect x="13" y="4" width="1" height="1" fill="#4a4a4a"/>
<rect x="14" y="4" width="1" height="1" fill="#4a4a4a"/>
<rect x="15" y="4" width="1" height="1" fill="#4a4a4a"/>
<rect x="16" y="4" width="1" height="1" fill="#4a4a4a"/>
<rect x="17" y="4" width="1" height="1" fill="#4a4a4a"/>
<rect x="18" y="4" width="1" height="1" fill="#4a4a4a"/>
<rect x="19" y="4" width="1" height="1" fill="#4a4a4a"/>
<rect x="20" y="4" width="1" height="1" fill="#4a4a4a"/>
<rect x="21" y="4" width="1" height="1" fill="#4a4a4a"/>
<rect x="22" y="4" width="1" height="1" fill="#4a4a4a"/>
<rect x="23" y="4" width="1" height="1" fill="#4a4a4a"/>
<rect x="24" y="4" width="1" height="1" fill="#4a4a4a"/>
<rect x="7" y="5" width="1" height="1" fill="#4a4a4a"/>
<rect x="8" y="5" width="1" height="1" fill="#4a4a4a"/>
<rect x="9" y="5" width="1" height="1" fill="#4a4a4a"/>
<rect x="10" y="5" width="1" height="1" fill="#4a4a4a"/>
<rect x="11" y="5" width="1" height="1" fill="#4a4a4a"/>
<rect x="12" y="5" width="1" height="1" fill="#4a4a4a"/>
<rect x="13" y="5" width="1" height="1" fill="#4a4a4a"/>
<rect x="14" y="5" width="1" height="1" fill="#4a4a4a"/>
<rect x="15" y="5" width="1" height="1" fill="#4a4a4a"/>
<rect x="16" y="5" width="1" height="1" fill="#4a4a4a"/>
<rect x="17" y="5" width="1" height="1" fill="#4a4a4a"/>
<rect x="18" y="5" width="1" height="1" fill="#4a4a4a"/>
<rect x="19" y="5" width="1" height="1" fill="#4a4a4a"/>
<rect x="20" y="5" width="1" height="1" fill="#4a4a4a"/>
<rect x="21" y="5" width="1" height="1" fill="#4a4a4a"/>
<rect x="22" y="5" width="1" height="1" fill="#4a4a4a"/>
<rect x="3" y="6" width="1" height="1" fill="#f26b21"/>
<rect x="4" y="6" width="1" height="1" fill="#f26b21"/>
<rect x="6" y="6" width="1" height="1" fill="#f26b21"/>
<rect x="7" y="6" width="1" height="1" fill="#f26b21"/>
<rect x="8" y="6" width="1" height="1" fill="#f26b21"/>
<rect x="9" y="6" width="1" height="1" fill="#f26b21"/>
<rect x="10" y="6" width="1" height="1" fill="#f26b21"/>
<rect x="11" y="6" width="1" height="1" fill="#f26b21"/>
<rect x="12" y="6" width="1" height="1" fill="#f26b21"/>
<rect x="13" y="6" width="1" height="1" fill="#f26b21"/>
<rect x="14" y="6" width="1" height="1" fill="#fafafa"/>
<rect x="15" y="6" width="1" height="1" fill="#fafafa"/>
<rect x="16" y="6" width="1" height="1" fill="#f26b21"/>
<rect x="17" y="6" width="1" height="1" fill="#f26b21"/>
<rect x="18" y="6" width="1" height="1" fill="#f26b21"/>
<rect x="19" y="6" width="1" height="1" fill="#f26b21"/>
<rect x="20" y="6" width="1" height="1" fill="#f26b21"/>
<rect x="21" y="6" width="1" height="1" fill="#f26b21"/>
<rect x="22" y="6" width="1" height="1" fill="#f26b21"/>
<rect x="23" y="6" width="1" height="1" fill="#4a4a4a"/>
<rect x="2" y="7" width="1" height="1" fill="#f26b21"/>
<rect x="3" y="7" width="1" height="1" fill="#f26b21"/>
<rect x="4" y="7" width="1" height="1" fill="#f26b21"/>
<rect x="5" y="7" width="1" height="1" fill="#f26b21"/>
<rect x="6" y="7" width="1" height="1" fill="#f26b21"/>
<rect x="7" y="7" width="1" height="1" fill="#f26b21"/>
<rect x="8" y="7" width="1" height="1" fill="#f26b21"/>
<rect x="9" y="7" width="1" height="1" fill="#f26b21"/>
<rect x="10" y="7" width="1" height="1" fill="#f26b21"/>
<rect x="11" y="7" width="1" height="1" fill="#f26b21"/>
<rect x="12" y="7" width="1" height="1" fill="#f26b21"/>
<rect x="13" y="7" width="1" height="1" fill="#f26b21"/>
<rect x="14" y="7" width="1" height="1" fill="#fafafa"/>
<rect x="15" y="7" width="1" height="1" fill="#fafafa"/>
<rect x="16" y="7" width="1" height="1" fill="#f26b21"/>
<rect x="17" y="7" width="1" height="1" fill="#f26b21"/>
<rect x="18" y="7" width="1" height="1" fill="#f26b21"/>
<rect x="19" y="7" width="1" height="1" fill="#f26b21"/>
<rect x="20" y="7" width="1" height="1" fill="#f26b21"/>
<rect x="21" y="7" width="1" height="1" fill="#f26b21"/>
<rect x="22" y="7" width="1" height="1" fill="#f26b21"/>
<rect x="3" y="8" width="1" height="1" fill="#f9971e"/>
<rect x="4" y="8" width="1" height="1" fill="#f9971e"/>
<rect x="7" y="8" width="1" height="1" fill="#f26b21"/>
<rect x="8" y="8" width="1" height="1" fill="#f26b21"/>
<rect x="9" y="8" width="1" height="1" fill="#f26b21"/>
<rect x="10" y="8" width="1" height="1" fill="#f26b21"/>
<rect x="11" y="8" width="1" height="1" fill="#f26b21"/>
<rect x="12" y="8" width="1" height="1" fill="#f26b21"/>
<rect x="13" y="8" width="1" height="1" fill="#f26b21"/>
<rect x="14" y="8" width="1" height="1" fill="#f26b21"/>
<rect x="15" y="8" width="1" height="1" fill="#f26b21"/>
<rect x="16" y="8" width="1" height="1" fill="#f26b21"/>
<rect x="17" y="8" width="1" height="1" fill="#f26b21"/>
<rect x="18" y="8" width="1" height="1" fill="#f26b21"/>
<rect x="19" y="8" width="1" height="1" fill="#f26b21"/>
<rect x="20" y="8" width="1" height="1" fill="#f26b21"/>
<rect x="21" y="8" width="1" height="1" fill="#f26b21"/>
<rect x="22" y="8" width="1" height="1" fill="#f26b21"/>
<rect x="2" y="9" width="1" height="1" fill="#f26b21"/>
<rect x="3" y="9" width="1" height="1" fill="#f26b21"/>
<rect x="7" y="9" width="1" height="1" fill="#4a4a4a"/>
<rect x="8" y="9" width="1" height="1" fill="#f6d7b0"/>
<rect x="9" y="9" width="1" height="1" fill="#f6d7b0"/>
<rect x="10" y="9" width="1" height="1" fill="#f6d7b0"/>
<rect x="11" y="9" width="1" height="1" fill="#f6d7b0"/>
<rect x="12" y="9" width="1" height="1" fill="#f6d7b0"/>
<rect x="13" y="9" width="1" height="1" fill="#f6d7b0"/>
<rect x="14" y="9" width="1" height="1" fill="#f6d7b0"/>
<rect x="15" y="9" width="1" height="1" fill="#f6d7b0"/>
<rect x="16" y="9" width="1" height="1" fill="#f6d7b0"/>
<rect x="17" y="9" width="1" height="1" fill="#f6d7b0"/>
<rect x="18" y="9" width="1" height="1" fill="#f6d7b0"/>
<rect x="19" y="9" width="1" height="1" fill="#f6d7b0"/>
<rect x="20" y="9" width="1" height="1" fill="#f6d7b0"/>
<rect x="21" y="9" width="1" height="1" fill="#f6d7b0"/>
<rect x="22" y="9" width="1" height="1" fill="#4a4a4a"/>
<rect x="1" y="10" width="1" height="1" fill="#f26b21"/>
<rect x="2" y="10" width="1" height="1" fill="#f26b21"/>
<rect x="7" y="10" width="1" height="1" fill="#4a4a4a"/>
<rect x="8" y="10" width="1" height="1" fill="#f6d7b0"/>
<rect x="9" y="10" width="1" height="1" fill="#111111"/>
<rect x="10" y="10" width="1" height="1" fill="#111111"/>
<rect x="11" y="10" width="1" height="1" fill="#f6d7b0"/>
<rect x="12" y="10" width="1" height="1" fill="#f6d7b0"/>
<rect x="13" y="10" width="1" height="1" fill="#f6d7b0"/>
<rect x="14" y="10" width="1" height="1" fill="#f6d7b0"/>
<rect x="15" y="10" width="1" height="1" fill="#f6d7b0"/>
<rect x="16" y="10" width="1" height="1" fill="#f6d7b0"/>
<rect x="17" y="10" width="1" height="1" fill="#f6d7b0"/>
<rect x="18" y="10" width="1" height="1" fill="#f6d7b0"/>
<rect x="19" y="10" width="1" height="1" fill="#111111"/>
<rect x="20" y="10" width="1" height="1" fill="#111111"/>
<rect x="21" y="10" width="1" height="1" fill="#f6d7b0"/>
<rect x="22" y="10" width="1" height="1" fill="#4a4a4a"/>
<rect x="7" y="11" width="1" height="1" fill="#4a4a4a"/>
<rect x="8" y="11" width="1" height="1" fill="#f6d7b0"/>
<rect x="9" y="11" width="1" height="1" fill="#111111"/>
<rect x="10" y="11" width="1" height="1" fill="#111111"/>
<rect x="11" y="11" width="1" height="1" fill="#111111"/>
<rect x="12" y="11" width="1" height="1" fill="#111111"/>
<rect x="13" y="11" width="1" height="1" fill="#f6d7b0"/>
<rect x="14" y="11" width="1" height="1" fill="#f6d7b0"/>
<rect x="15" y="11" width="1" height="1" fill="#f6d7b0"/>
<rect x="16" y="11" width="1" height="1" fill="#f6d7b0"/>
<rect x="17" y="11" width="1" height="1" fill="#111111"/>
<rect x="18" y="11" width="1" height="1" fill="#111111"/>
<rect x="19" y="11" width="1" height="1" fill="#111111"/>
<rect x="20" y="11" width="1" height="1" fill="#111111"/>
<rect x="21" y="11" width="1" height="1" fill="#f6d7b0"/>
<rect x="22" y="11" width="1" height="1" fill="#4a4a4a"/>
<rect x="7" y="12" width="1" height="1" fill="#4a4a4a"/>
<rect x="8" y="12" width="1" height="1" fill="#f6d7b0"/>
<rect x="9" y="12" width="1" height="1" fill="#f6d7b0"/>
<rect x="10" y="12" width="1" height="1" fill="#111111"/>
<rect x="11" y="12" width="1" height="1" fill="#111111"/>
<rect x="12" y="12" width="1" height="1" fill="#111111"/>
<rect x="13" y="12" width="1" height="1" fill="#111111"/>
<rect x="14" y="12" width="1" height="1" fill="#f6d7b0"/>
<rect x="15" y="12" width="1" height="1" fill="#f6d7b0"/>
<rect x="16" y="12" width="1" height="1" fill="#111111"/>
<rect x="17" y="12" width="1" height="1" fill="#111111"/>
<rect x="18" y="12" width="1" height="1" fill="#111111"/>
<rect x="19" y="12" width="1" height="1" fill="#111111"/>
<rect x="20" y="12" width="1" height="1" fill="#f6d7b0"/>
<rect x="21" y="12" width="1" height="1" fill="#f6d7b0"/>
<rect x="22" y="12" width="1" height="1" fill="#4a4a4a"/>
<rect x="7" y="13" width="1" height="1" fill="#4a4a4a"/>
<rect x="8" y="13" width="1" height="1" fill="#f6d7b0"/>
<rect x="9" y="13" width="1" height="1" fill="#f6d7b0"/>
<rect x="10" y="13" width="1" height="1" fill="#f6d7b0"/>
<rect x="11" y="13" width="1" height="1" fill="#f6d7b0"/>
<rect x="12" y="13" width="1" height="1" fill="#f6d7b0"/>
<rect x="13" y="13" width="1" height="1" fill="#f6d7b0"/>
<rect x="14" y="13" width="1" height="1" fill="#f6d7b0"/>
<rect x="15" y="13" width="1" height="1" fill="#f6d7b0"/>
<rect x="16" y="13" width="1" height="1" fill="#f6d7b0"/>
<rect x="17" y="13" width="1" height="1" fill="#f6d7b0"/>
<rect x="18" y="13" width="1" height="1" fill="#f6d7b0"/>
<rect x="19" y="13" width="1" height="1" fill="#f6d7b0"/>
<rect x="20" y="13" width="1" height="1" fill="#f6d7b0"/>
<rect x="21" y="13" width="1" height="1" fill="#f6d7b0"/>
<rect x="22" y="13" width="1" height="1" fill="#4a4a4a"/>
<rect x="6" y="14" width="1" height="1" fill="#4a4a4a"/>
<rect x="7" y="14" width="1" height="1" fill="#4a4a4a"/>
<rect x="8" y="14" width="1" height="1" fill="#4a4a4a"/>
<rect x="9" y="14" width="1" height="1" fill="#4a4a4a"/>
<rect x="10" y="14" width="1" height="1" fill="#4a4a4a"/>
<rect x="11" y="14" width="1" height="1" fill="#4a4a4a"/>
<rect x="12" y="14" width="1" height="1" fill="#4a4a4a"/>
<rect x="13" y="14" width="1" height="1" fill="#4a4a4a"/>
<rect x="14" y="14" width="1" height="1" fill="#4a4a4a"/>
<rect x="15" y="14" width="1" height="1" fill="#4a4a4a"/>
<rect x="16" y="14" width="1" height="1" fill="#4a4a4a"/>
<rect x="17" y="14" width="1" height="1" fill="#4a4a4a"/>
<rect x="18" y="14" width="1" height="1" fill="#4a4a4a"/>
<rect x="19" y="14" width="1" height="1" fill="#4a4a4a"/>
<rect x="20" y="14" width="1" height="1" fill="#4a4a4a"/>
<rect x="21" y="14" width="1" height="1" fill="#4a4a4a"/>
<rect x="22" y="14" width="1" height="1" fill="#4a4a4a"/>
<rect x="5" y="15" width="1" height="1" fill="#4a4a4a"/>
<rect x="6" y="15" width="1" height="1" fill="#4a4a4a"/>
<rect x="8" y="15" width="1" height="1" fill="#4a4a4a"/>
<rect x="9" y="15" width="1" height="1" fill="#4a4a4a"/>
<rect x="10" y="15" width="1" height="1" fill="#4a4a4a"/>
<rect x="11" y="15" width="1" height="1" fill="#4a4a4a"/>
<rect x="12" y="15" width="1" height="1" fill="#4a4a4a"/>
<rect x="13" y="15" width="1" height="1" fill="#4a4a4a"/>
<rect x="14" y="15" width="1" height="1" fill="#4a4a4a"/>
<rect x="15" y="15" width="1" height="1" fill="#4a4a4a"/>
<rect x="16" y="15" width="1" height="1" fill="#4a4a4a"/>
<rect x="17" y="15" width="1" height="1" fill="#4a4a4a"/>
<rect x="18" y="15" width="1" height="1" fill="#4a4a4a"/>
<rect x="19" y="15" width="1" height="1" fill="#4a4a4a"/>
<rect x="20" y="15" width="1" height="1" fill="#4a4a4a"/>
<rect x="21" y="15" width="1" height="1" fill="#4a4a4a"/>
<rect x="4" y="16" width="1" height="1" fill="#4a4a4a"/>
<rect x="5" y="16" width="1" height="1" fill="#4a4a4a"/>
<rect x="9" y="16" width="1" height="1" fill="#4a4a4a"/>
<rect x="10" y="16" width="1" height="1" fill="#4a4a4a"/>
<rect x="11" y="16" width="1" height="1" fill="#4a4a4a"/>
<rect x="12" y="16" width="1" height="1" fill="#4a4a4a"/>
<rect x="13" y="16" width="1" height="1" fill="#4a4a4a"/>
<rect x="14" y="16" width="1" height="1" fill="#4a4a4a"/>
<rect x="15" y="16" width="1" height="1" fill="#4a4a4a"/>
<rect x="16" y="16" width="1" height="1" fill="#4a4a4a"/>
<rect x="17" y="16" width="1" height="1" fill="#4a4a4a"/>
<rect x="18" y="16" width="1" height="1" fill="#4a4a4a"/>
<rect x="19" y="16" width="1" height="1" fill="#4a4a4a"/>
<rect x="20" y="16" width="1" height="1" fill="#4a4a4a"/>
<rect x="2" y="17" width="1" height="1" fill="#f9971e"/>
<rect x="3" y="17" width="1" height="1" fill="#4a4a4a"/>
<rect x="4" y="17" width="1" height="1" fill="#4a4a4a"/>
<rect x="8" y="17" width="1" height="1" fill="#f26b21"/>
<rect x="9" y="17" width="1" height="1" fill="#f26b21"/>
<rect x="10" y="17" width="1" height="1" fill="#f26b21"/>
<rect x="11" y="17" width="1" height="1" fill="#f26b21"/>
<rect x="12" y="17" width="1" height="1" fill="#f26b21"/>
<rect x="13" y="17" width="1" height="1" fill="#f26b21"/>
<rect x="14" y="17" width="1" height="1" fill="#f26b21"/>
<rect x="15" y="17" width="1" height="1" fill="#f26b21"/>
<rect x="16" y="17" width="1" height="1" fill="#f26b21"/>
<rect x="17" y="17" width="1" height="1" fill="#f26b21"/>
<rect x="18" y="17" width="1" height="1" fill="#f26b21"/>
<rect x="19" y="17" width="1" height="1" fill="#f26b21"/>
<rect x="20" y="17" width="1" height="1" fill="#f26b21"/>
<rect x="21" y="17" width="1" height="1" fill="#f26b21"/>
<rect x="1" y="18" width="1" height="1" fill="#f9971e"/>
<rect x="2" y="18" width="1" height="1" fill="#4a4a4a"/>
<rect x="3" y="18" width="1" height="1" fill="#4a4a4a"/>
<rect x="10" y="18" width="1" height="1" fill="#f26b21"/>
<rect x="11" y="18" width="1" height="1" fill="#f26b21"/>
<rect x="12" y="18" width="1" height="1" fill="#f26b21"/>
<rect x="13" y="18" width="1" height="1" fill="#f26b21"/>
<rect x="14" y="18" width="1" height="1" fill="#f26b21"/>
<rect x="15" y="18" width="1" height="1" fill="#f26b21"/>
<rect x="16" y="18" width="1" height="1" fill="#f26b21"/>
<rect x="17" y="18" width="1" height="1" fill="#f26b21"/>
<rect x="18" y="18" width="1" height="1" fill="#f26b21"/>
<rect x="19" y="18" width="1" height="1" fill="#f26b21"/>
</svg>